<svg id="Layer_1" data-name="Layer 1" xmlns="http://www.w3.org/2000/svg" xmlns:xlink="http://www.w3.org/1999/xlink" viewBox="0 0 113.39 113.39"><defs><style>.cls-1{fill:none;}.cls-2{fill:#003b71;}.cls-3{clip-path:url(#clip-path);}.cls-4{fill:#fff;}</style><clipPath id="clip-path" transform="translate(-56.69 -56.67)"><rect class="cls-1" x="56.69" y="56.67" width="113.39" height="113.39"/></clipPath></defs><title>QUT_SQUARE_RGB</title><rect class="cls-2" width="113.39" height="113.39"/><g class="cls-3"><path class="cls-4" d="M106.41,68s0,29.05,0,30.37c0,2.14,2.62,12,16.18,12s15.73-9.8,15.73-11.88V81l-10.4-10.89V97.28c0,.55,0,3.31-5.36,3.31-5.61,0-5.61-2.72-5.61-3.38V68Z" transform="translate(-56.69 -56.67)"/></g><polygon class="cls-4" points="72.29 11.3 82.2 21.56 89.37 21.56 89.37 52.98 100.2 52.98 100.2 21.56 108.56 21.56 108.56 11.29 72.29 11.3"/><g class="cls-3"><path class="cls-4" d="M100.93,100.7l8.86,9H97.85L78.37,89.42h11.5l3.07,3.15a9.44,9.44,0,0,0,.74-3.95,11.07,11.07,0,1,0-22.13.15,11,11,0,0,0,11.06,11,6.24,6.24,0,0,0,2-.22c.1,0,8,8.53,8,8.57-2.26,1.61-6.59,2.42-10,2.42-11.86,0-21.09-10.11-21.09-21.61a21.43,21.43,0,0,1,42.85.44,22.35,22.35,0,0,1-3.44,11.35" transform="translate(-56.69 -56.67)"/></g></svg>